# xmcd CD database file
#
# Track frame offsets:
#	150
#	21990
#	45938
#	69075
#	92680
#	111843
#	133606
#	161470
#	185500
#	207058
#	227076
#	254446
#	276548
#	299050
#
# Disc length: 4239 seconds
#
# Revision: 0
# Processed by: cddbd v1.5.1PL0 Copyright (c) Steve Scherf et al.
# Submitted via: CDex 1.51
#
DISCID=c9108d0e
DTITLE=Bonny Cepeda - Grandes Exitos
DYEAR=1900
DGENRE=Merengue
TTITLE0=Golpeame
TTITLE1=Mehui, Mehui
TTITLE2=Ay Doctor
TTITLE3=Me Tiene Chivo
TTITLE4=La Fotografia
TTITLE5=El Mandamas
TTITLE6=El Hijo de Madam Ines
TTITLE7=Muchacha Curazaleña
TTITLE8=La Hija y La Mama
TTITLE9=Yo Te Vi
TTITLE10=Hoy Rio Yo
TTITLE11=El Ñe Ñe Ñe
TTITLE12=Cuarto De Hotel
TTITLE13=La Carta de Margot
EXTD=
EXTT0=
EXTT1=
EXTT2=
EXTT3=
EXTT4=
EXTT5=
EXTT6=
EXTT7=
EXTT8=
EXTT9=
EXTT10=
EXTT11=
EXTT12=
EXTT13=
PLAYORDER=
